<?xml version="1.0" standalone="no"?>
<!DOCTYPE svg PUBLIC "-//W3C//DTD SVG 20010904//EN"
 "http://www.w3.org/TR/2001/REC-SVG-20010904/DTD/svg10.dtd">
<svg version="1.0" xmlns="http://www.w3.org/2000/svg"
 width="791.000000pt" height="430.000000pt" viewBox="0 0 791.000000 430.000000"
 preserveAspectRatio="xMidYMid meet">

<g transform="translate(0.000000,430.000000) scale(0.100000,-0.100000)"
fill="#000000" stroke="none">
<path fill="#008a14" d="M3505 4123 c-1067 -67 -2015 -340 -2655 -766 -339 -226 -581 -495
-694 -771 -62 -150 -71 -202 -70 -396 0 -161 2 -182 27 -265 172 -569 788
-1049 1742 -1358 499 -161 1054 -261 1663 -298 218 -13 888 -7 1067 10 723 69
1268 190 1795 398 214 85 580 266 566 280 -3 3 -26 -2 -53 -11 -26 -8 -120
-33 -208 -55 -758 -185 -1655 -195 -2445 -25 -675 145 -1251 439 -1529 781
-82 101 -170 270 -196 375 -21 89 -21 258 1 346 132 539 869 1002 1889 1187
373 68 661 89 1114 82 511 -8 916 -63 1327 -182 65 -18 120 -32 122 -30 2 1
-36 25 -85 53 -624 352 -1473 577 -2413 642 -130 9 -838 11 -965 3z"/>

<path fill="#ff0000" d="M5050 3419 c-407 -29 -799 -109 -1129 -230 -114 -42 -417 -186 -409
-195 3 -2 56 9 119 26 423 111 958 132 1419 54 609 -102 1061 -352 1205 -665
138 -304 -66 -635 -528 -854 -293 -139 -661 -223 -1078 -245 -363 -18 -780 25
-1072 111 -38 11 -71 18 -73 16 -15 -14 306 -163 488 -225 461 -159 992 -230
1573 -210 841 28 1603 282 1985 659 179 177 263 354 263 554 -1 204 -97 394
-286 571 -343 319 -940 541 -1667 619 -175 19 -637 27 -810 14z"/>
</g>
</svg>
