<?xml version="1.0" standalone="no"?>
<!DOCTYPE svg PUBLIC "-//W3C//DTD SVG 20010904//EN"
 "http://www.w3.org/TR/2001/REC-SVG-20010904/DTD/svg10.dtd">
<svg version="1.0" xmlns="http://www.w3.org/2000/svg"
 width="791.000000pt" height="791.000000pt" viewBox="0 0 791.000000 791.000000"
 preserveAspectRatio="xMidYMid meet">
<metadata>
Created by potrace 1.14, written by Peter Selinger 2001-2017
</metadata>
<g transform="translate(0.000000,791.000000) scale(0.100000,-0.100000)"
fill="#000000" stroke="none">
<path d="M3291 5925 c-558 -52 -1022 -146 -1486 -300 -990 -328 -1617 -855
-1720 -1444 -49 -278 17 -547 198 -816 79 -117 298 -336 441 -442 1445 -1070
4504 -1161 6199 -186 42 25 77 49 77 53 0 5 -25 0 -57 -11 -235 -81 -700 -168
-1073 -201 -188 -16 -733 -16 -920 0 -774 69 -1415 263 -1870 567 -521 347
-701 786 -493 1198 54 109 108 183 208 286 729 755 2603 1044 4062 625 85 -25
158 -43 160 -40 8 8 -267 158 -406 221 -537 245 -1122 396 -1871 482 -198 22
-1232 28 -1449 8z"/>
<path d="M5245 5243 c-608 -14 -1215 -154 -1645 -379 -110 -58 -158 -93 -110
-80 423 117 781 159 1161 137 651 -39 1175 -221 1454 -505 211 -215 242 -456
87 -682 -138 -202 -440 -385 -816 -493 -129 -37 -318 -74 -492 -98 -181 -24
-647 -24 -828 0 -177 24 -366 62 -487 98 -56 16 -103 28 -106 26 -5 -6 93 -65
183 -110 339 -170 785 -287 1284 -339 166 -17 726 -17 890 0 526 55 942 166
1301 348 455 231 699 531 699 858 -1 199 -83 371 -264 551 -434 432 -1325 690
-2311 668z"/>
</g>
</svg>
